<?xml version="1.0" standalone="no"?>
<!DOCTYPE svg PUBLIC "-//W3C//DTD SVG 20010904//EN"
 "http://www.w3.org/TR/2001/REC-SVG-20010904/DTD/svg10.dtd">
<svg version="1.0" xmlns="http://www.w3.org/2000/svg"
 width="700.000000pt" height="700.000000pt" viewBox="0 0 700.000000 700.000000"
 preserveAspectRatio="xMidYMid meet">
<metadata>
Created by potrace 1.14, written by Peter Selinger 2001-2017
</metadata>
<g transform="translate(0.000000,700.000000) scale(0.100000,-0.100000)"
fill="#000000" stroke="none">
<path d="M3448 5935 c-2 -1 -33 -5 -70 -9 -36 -3 -72 -8 -80 -10 -7 -3 -35 -8
-63 -11 -61 -8 -90 -13 -90 -15 0 -1 -11 -3 -24 -6 -51 -9 -188 -45 -221 -58
-19 -8 -37 -14 -40 -14 -6 -1 -17 -4 -105 -35 -143 -50 -304 -129 -455 -223
-72 -44 -112 -72 -215 -151 -272 -208 -580 -603 -717 -917 -16 -39 -36 -84
-43 -101 -15 -33 -75 -211 -80 -235 -12 -60 -36 -135 -44 -138 -5 -2 -48 -29
-95 -60 -124 -82 -295 -241 -303 -280 -10 -48 -2 -343 11 -412 3 -14 8 -47 11
-75 3 -27 15 -97 26 -155 11 -58 22 -115 25 -127 11 -59 18 -93 27 -118 3 -11
8 -31 11 -45 3 -14 10 -43 16 -65 6 -22 13 -49 15 -60 2 -11 15 -54 28 -95 21
-68 27 -77 63 -95 21 -11 41 -22 44 -25 3 -3 32 -16 65 -28 33 -13 69 -27 80
-32 27 -11 145 -45 224 -65 79 -20 321 -28 321 -10 0 6 -9 21 -20 33 -11 12
-20 23 -20 26 0 3 -20 36 -43 73 -24 37 -50 83 -58 101 -8 17 -17 32 -20 32
-4 0 -12 15 -19 33 -7 17 -21 51 -31 75 -11 24 -27 62 -35 85 -9 23 -22 56
-29 72 -12 27 -37 106 -41 130 -1 6 -3 12 -4 15 -1 3 -3 12 -5 20 -18 71 -22
90 -18 90 3 0 0 7 -7 15 -7 9 -10 18 -7 21 3 3 1 19 -4 36 -9 34 -20 110 -24
173 -1 22 -3 40 -4 40 -6 0 -2 327 4 375 3 30 8 69 9 85 2 17 7 53 12 80 4 28
8 52 9 55 0 3 4 11 9 18 4 7 6 15 3 18 -2 2 9 51 25 107 16 56 31 110 33 121
2 10 9 24 16 32 6 8 8 14 4 14 -4 0 -3 6 2 13 6 6 16 30 23 52 7 21 24 60 36
86 13 26 24 52 24 57 0 6 6 17 13 24 6 7 28 43 47 81 19 37 38 67 42 67 5 0 8
6 8 13 0 7 9 23 20 35 11 12 20 24 20 27 0 9 77 112 134 180 50 60 185 197
241 245 64 55 165 130 175 130 5 0 10 5 10 10 0 6 6 10 13 10 7 0 23 10 37 23
29 25 87 58 215 121 183 89 304 131 488 171 12 2 36 8 52 11 17 4 41 8 55 10
14 1 43 5 65 9 22 4 55 6 73 6 17 -1 32 3 32 9 0 6 3 9 8 7 4 -3 97 -6 207 -8
110 -1 205 -5 210 -8 6 -3 21 -7 35 -8 14 -1 39 -4 55 -7 17 -4 44 -8 60 -11
17 -2 37 -6 45 -8 8 -2 29 -7 45 -11 122 -29 345 -105 345 -118 0 -4 6 -5 13
-2 8 3 20 -2 27 -11 7 -8 19 -15 27 -15 16 0 130 -58 151 -77 7 -7 17 -13 22
-13 19 0 193 -120 256 -177 14 -13 29 -23 34 -23 5 0 17 -11 28 -25 11 -14 23
-25 27 -25 7 0 165 -158 165 -165 0 -2 10 -15 23 -28 34 -36 64 -73 105 -130
20 -29 40 -53 44 -55 5 -2 8 -7 8 -12 0 -5 17 -35 38 -67 66 -104 125 -213
115 -213 -3 0 1 -8 9 -17 15 -18 29 -47 34 -71 1 -7 10 -25 19 -39 9 -14 13
-23 7 -19 -6 3 -2 -11 8 -31 10 -21 26 -65 35 -98 10 -33 20 -67 23 -75 3 -8
7 -26 9 -40 2 -14 6 -32 10 -40 9 -22 12 -41 39 -230 12 -90 14 -158 10 -310
-4 -107 -9 -208 -11 -225 -8 -52 -12 -79 -20 -120 -4 -22 -9 -47 -10 -55 -2
-8 -8 -35 -15 -60 -7 -25 -13 -49 -14 -55 -9 -38 -40 -132 -48 -141 -5 -7 -8
-16 -7 -20 2 -5 -6 -29 -16 -54 -11 -25 -19 -47 -18 -50 0 -3 -8 -17 -18 -31
-10 -14 -16 -29 -12 -33 3 -3 1 -6 -6 -6 -7 0 -10 -4 -7 -9 3 -4 -9 -30 -26
-57 -17 -27 -30 -51 -30 -54 0 -3 -14 -27 -31 -55 -50 -80 -56 -89 -64 -105
-8 -17 -19 -32 -45 -61 -10 -10 -15 -19 -10 -19 4 0 2 -4 -3 -8 -6 -4 -36 -39
-67 -78 -76 -95 -216 -234 -308 -305 -24 -18 -50 -39 -58 -46 -7 -7 -26 -20
-42 -30 -17 -9 -30 -20 -30 -24 0 -4 -11 -10 -25 -13 -14 -4 -25 -11 -25 -16
0 -6 -7 -10 -15 -10 -8 0 -15 -4 -15 -9 0 -5 -14 -14 -31 -21 -17 -7 -36 -18
-43 -24 -6 -6 -34 -22 -61 -36 -28 -13 -53 -29 -57 -35 -4 -5 -8 -7 -8 -3 0 4
-34 -8 -75 -27 -41 -19 -118 -48 -172 -65 -54 -17 -111 -37 -128 -43 -20 -8
-134 -13 -337 -15 -170 -1 -308 -5 -308 -7 0 -7 200 -205 208 -206 11 -1 265
-1 283 0 8 1 25 10 37 22 26 23 77 23 77 -1 0 -10 9 -14 25 -13 28 3 74 11 78
14 1 1 5 2 10 3 4 1 34 10 67 20 33 10 65 19 70 21 6 1 21 6 35 12 14 6 51 20
83 32 31 11 79 32 106 45 27 14 51 22 55 19 3 -4 6 -1 6 5 0 7 5 12 11 12 6 0
24 9 40 21 16 11 29 17 29 13 0 -4 8 -1 18 7 9 8 33 23 52 34 19 10 40 23 45
27 6 4 35 24 65 44 193 128 386 303 515 468 17 21 38 47 48 59 9 11 17 23 17
27 0 3 8 15 19 26 10 11 32 40 47 65 16 24 32 47 35 52 3 4 41 16 85 27 71 17
220 65 314 102 19 8 51 24 70 36 19 12 38 22 42 22 6 0 23 44 33 86 3 10 14
51 25 89 12 39 23 79 25 90 4 19 17 74 20 85 1 3 5 23 10 45 13 56 12 55 15
58 1 1 3 11 5 22 2 11 5 30 8 41 3 12 8 37 11 55 10 59 16 93 23 124 3 17 7
44 8 60 1 17 6 57 11 90 4 33 8 138 9 233 l0 173 -70 67 c-125 120 -195 175
-307 241 -26 15 -38 31 -43 54 -22 113 -118 391 -153 445 -8 12 -10 22 -6 22
5 0 5 4 -1 8 -5 4 -26 38 -45 76 -48 95 -195 318 -276 418 -77 97 -296 315
-372 373 -28 21 -52 43 -52 47 0 4 -5 8 -10 8 -6 0 -48 26 -93 58 -45 31 -100
67 -122 80 -251 141 -499 236 -771 296 -139 31 -175 36 -294 42 -52 2 -105 6
-117 8 -13 2 -24 2 -25 1z"/>
<path d="M3288 5479 c-13 -3 -49 -9 -80 -12 -64 -7 -243 -49 -305 -71 -24 -8
-43 -13 -43 -10 0 2 -11 -3 -25 -12 -14 -9 -25 -13 -25 -9 0 4 -6 3 -12 -2
-16 -11 -99 -43 -112 -42 -5 0 -12 -3 -15 -8 -3 -5 -42 -27 -86 -50 -310 -155
-612 -438 -787 -736 -130 -221 -206 -424 -257 -687 -31 -158 -34 -491 -6 -645
3 -16 10 -53 16 -81 5 -28 12 -64 15 -80 12 -66 95 -296 143 -394 88 -180 135
-252 281 -434 78 -96 283 -278 400 -355 30 -20 57 -39 58 -43 2 -5 10 -8 17
-8 8 0 20 -6 27 -13 37 -35 394 -190 428 -186 3 0 19 -5 35 -11 34 -13 29 -12
155 -39 53 -11 131 -23 175 -27 136 -14 416 -8 510 10 11 2 40 7 65 11 79 13
232 53 285 75 11 4 43 16 70 25 59 21 207 92 285 136 172 97 419 306 515 434
17 22 38 47 47 55 10 8 51 66 92 128 155 233 258 494 306 772 31 175 33 534 5
640 -2 8 -6 32 -9 52 -3 21 -15 73 -27 115 -12 43 -22 83 -23 88 -12 47 -20
72 -27 80 -4 6 -7 12 -6 15 1 3 -13 43 -32 89 -125 314 -350 609 -631 828
-139 109 -301 199 -503 282 -74 30 -235 76 -297 86 -8 1 -40 7 -70 13 -30 6
-80 14 -110 18 -71 9 -410 12 -442 3z m-768 -1140 c4 -6 5 -1568 1 -1616 -1
-7 -92 79 -203 191 l-203 203 0 609 c0 335 3 611 7 614 11 8 392 6 398 -1z
m2361 -98 c5 -38 2 -151 -4 -151 -5 0 -5 -5 -1 -12 6 -9 9 -165 5 -228 -1 -13
-101 -15 -843 -14 l-843 1 -139 -139 c-76 -76 -140 -138 -142 -138 -8 0 -274
269 -274 277 0 4 90 98 201 209 l201 201 919 0 c505 0 919 -3 920 -6z m-1081
-511 c0 -3 -101 -106 -225 -230 l-225 -224 25 -26 25 -25 535 -1 c294 0 535 2
536 5 6 35 2 84 -6 90 -5 4 -142 7 -303 7 -160 -1 -292 1 -292 4 0 3 91 96
203 206 l202 201 299 -1 300 -1 5 -25 c5 -19 6 -837 2 -885 -1 -7 -298 -10
-871 -10 l-869 1 -191 189 c-105 105 -195 198 -201 207 -8 14 34 60 245 270
l254 253 276 0 c152 0 276 -2 276 -5z"/>
</g>
</svg>
